<svg width="8078" height="6235" viewBox="0 0 8078 6235" fill="none" xmlns="http://www.w3.org/2000/svg">
<path d="M7572.38 2567.21H504.825C226.02 2567.21 0 2813.51 0 3117.33C0 3421.15 226.02 3667.45 504.825 3667.45H7572.38C7851.19 3667.45 8077.21 3421.15 8077.21 3117.33C8077.21 2813.51 7851.19 2567.21 7572.38 2567.21ZM504.825 1100.24H7572.38C7851.19 1100.24 8077.21 853.939 8077.21 550.119C8077.21 246.298 7851.19 0 7572.38 0H504.825C226.02 0 0 246.298 0 550.119C0 853.939 226.02 1100.24 504.825 1100.24ZM7572.38 5134.43H504.825C226.02 5134.43 0 5380.73 0 5684.55C0 5988.37 226.02 6234.67 504.825 6234.67H7572.38C7851.19 6234.67 8077.21 5988.37 8077.21 5684.55C8077.21 5380.73 7851.19 5134.43 7572.38 5134.43Z" fill="black"/>
</svg>
